<svg version="1" xmlns="http://www.w3.org/2000/svg" width="1848" height="1848" viewBox="0 0 1386.000000 1386.000000"><path d="M849.6 297.1c-1.6 1.2-2.9 4.1-4 8.5-3.6 14.4-9 20.7-17.5 20.7-5.4 0-11-1.7-26.1-7.9-18.2-7.4-41.9-14.5-56-16.9-1.9-.3-4.8-.8-6.5-1.1-10.6-1.8-18.3-2.3-36.5-1.9-11.3.2-21.6.6-23 .9-1.4.3-4.6.8-7.2 1.1-8.4.8-27.9 5.6-39 9.6-42.8 15.3-80.1 47.3-99.5 85.4-2.5 4.9-4.7 9.2-4.9 9.4-.3.3-2.6-1.8-5.3-4.5-34.1-34.6-79.6-59.6-134.1-73.8-10.7-2.8-31.8-7.3-37.7-8.1-2.1-.2-4.7-.7-5.9-.9-1.2-.2-4.5-.7-7.4-1.1-2.9-.4-6-.8-6.9-1-1.4-.3-6-.8-18.1-2-5.7-.6-20-1.7-26.5-2.1-3.3-.2-27.1-.6-53-.8-25.8-.3-70.4-.8-99-1.1-83-1.1-123-.9-126.2.7-5.1 2.4-5.7 10-1 13.1 3.2 2 7.2 2.6 20.2 2.7 22.3.3 36.9 5.7 41.9 15.8 2 3.9 3.4 11.1 4.3 21.7.9 10.1.9 502.1.1 517-.4 6-.9 11.7-1.1 12.5-.3.8-.8 2.7-1.1 4.1-.3 1.4-1.6 3.7-2.8 5.1-6.3 7.1-18.5 10.3-41.3 10.6-18.7.3-26 1.8-27.5 5.7-1.4 3.6.3 7 4 8.5 5.4 2.2 264.6 1.8 292.2-.5 2.9-.2 8.7-.7 12.8-.9 4.1-.3 9.5-.8 12-1.1 2.5-.3 6.8-.7 9.5-1 4.6-.5 8.9-1.1 15.5-2 1.4-.2 4.5-.7 7-1 2.5-.3 6.8-1 9.5-1.5 2.8-.5 6.1-1.2 7.5-1.4 1.4-.2 5.7-1.2 9.5-2 3.9-.9 8-1.9 9.1-2.1 21.2-4.8 56.9-19.8 78.8-33.2 4.3-2.6 8.6-5.3 9.5-5.8 6.5-3.9 29.4-21.4 31.4-24 .8-1 .2 15.6-.9 24.5-.3 2.5-.7 5.8-.9 7.5-.5 4-2.5 18.4-3.1 21.5-.8 5.1-1.8 18.7-1.8 25.3 0 5.2.5 7.4 2.1 9.5 4.7 6.4 9.3 2.8 13.3-10.6 6.5-21.7 14.4-30.2 26-28 2.4.4 13 3.9 23.5 7.7 45.3 16.5 82.5 26.3 112.5 29.8 13.2 1.6 51.1.8 61-1.2 1.4-.3 4.3-.8 6.5-1 10.6-1.4 42.8-10.6 44-12.6.4-.5 1.3-.9 2.1-.9 2.2 0 19.8-9 28.4-14.5 12.8-8.2 24.1-17.4 35.6-29.1l11.1-11.2 2.9 2.7c7.3 6.7 24.2 19.6 34.6 26.4 5.5 3.6 22.6 13.7 23.3 13.7.1 0 4.5 2 9.6 4.4 15.1 7.1 35.8 14.3 46.6 16.2 1.5.3 3 .7 3.4.9.4.3 2.4.7 4.5 1 2.2.4 4.6.8 5.5 1.1.9.2 3.4.7 5.5.9 2 .3 4.9.7 6.3 1 1.4.2 4.9.7 7.6 1 3.4.4 5.5 1.3 6.6 2.7 1.5 1.9 1.3 2.6-2.1 10.7-5.5 12.7-5.9 16.5-2 17.1 3.8.6 4.7-.7 7-10 .6-2.5 1.8-6.4 2.7-8.8 1.4-3.6 1.9-4.1 3.7-3.6 2.3.8 18 .7 23.6 0 1.9-.3 6.2-.8 9.5-1.1 44.9-4.4 91.9-21.4 130-47.1 43.2-29.1 74.5-64.3 112.5-126.9 16.1-26.4 19.2-30.3 29.1-36.3 9.7-5.9 27-8.6 39.3-6.3 3.3.6 6.1.9 6.3.7 1.2-1.1-33.1-15.6-46.7-19.6-4.1-1.3-7.7-2.4-7.9-2.6-.2-.1.8-6 2.2-13.1 2.9-14.3 5-29.6 6.2-46.3.7-8.5.7-50.7.1-56-.3-1.9-.7-6.7-1.1-10.5-.8-9.8-2-19.5-2.9-24-.6-3.2-1.7-11-1.6-11.5.1-.3-.3-1.7-.8-3.1-.6-1.4-1.3-4.3-1.6-6.4-2-12.5-10.5-39.2-18.3-57.8-2.9-7.1-5.8-13.6-6.3-14.5-.5-.9-3.7-6.9-7.1-13.2-9.8-18.1-20.1-33.3-34.4-50.5-26.5-31.9-56.1-55.8-89.6-72.6-11.9-6-31.4-13.7-41.6-16.5-9.8-2.7-25.7-6.2-30.4-6.8-2.4-.3-5.3-.8-6.5-1-6.8-1.4-20.7-2.1-41.9-2.1-27.7 0-37.1.8-56.9 4.6-48.8 9.5-90.2 29.8-128.1 62.8-5.2 4.5-9.5 7.6-9.6 6.9-.4-5.2.7-33.7 1.5-40.3 1.8-13.9 2.1-29.9.6-33.5-1.9-4.7-8.3-6.2-12.4-2.9zm219.4 18.4c13.6 2.3 27.8 7.9 37.7 14.6 6.8 4.7 18 16.2 23.7 24.3 5.9 8.6 15.1 27.6 20.5 42.4 6.7 18.3 14.5 48 17.7 66.8.2 1.6.9 5.1 1.4 7.9.9 4.6 1.6 9.5 2.5 16.8.2 1.5.9 6.2 1.4 10.5.6 4.2 1.3 9.9 1.6 12.7.3 2.7.7 6.8 1 9 .2 2.2.7 7.1 1 11 .3 3.8.8 9.7 1.1 13 3.1 36.1 3.7 121.9 1 151.5-.2 1.9-.4 4.7-.5 6.1-.1 2.3-1.2 3-12.8 7.3-13.2 5-32.6 14.3-42.3 20.4-23.2 14.6-38 25.9-54.3 41.8-26.3 25.7-43.9 55.1-51.1 85.4-1.4 6.1-1.9 8.6-3.1 17-.8 5.8-.6 30.2.4 34.2.5 2 .7 3.9.4 4.2-1 .9-11.8-6.2-18.4-12.2-8.4-7.8-14-14.9-22.4-28.8-21.2-34.9-37.2-80.9-46-131.9-.8-5-1.7-9.9-1.9-11-.2-1.1-.7-4.5-1.1-7.5-.4-3-.9-6.2-1-7-.1-.8-.6-4.7-1-8.5-.4-3.9-.9-8.1-1-9.5-1.8-15.6-2.9-31.2-4.1-54-.5-10.7-.5-74.8.1-81.5.2-2.8.6-9.5.9-15 .7-11.4 1.7-21.8 3.2-33.5.3-2.5.7-6.3.9-8.5.4-3.7 4.1-25.9 5-30.2 4.4-20.8 8.3-35.6 13.2-50.3 16.8-50 41.3-84.7 70.5-99.6 7-3.6 19-7.3 25.5-8 3.2-.4 6-.8 6.1-1 .6-.4 20.4.4 24.2 1.1zm-338 3.9c1.4.3 4.9 1.1 7.8 1.7 13.5 2.8 29.3 9.8 40.2 17.9 7.6 5.7 20 18 26.6 26.5 11.9 15.3 26.2 39.4 24.8 41.7-.4.6-2.9 4-5.6 7.6-8.2 10.8-16.4 23.5-23.1 35.4-7.2 13-15.9 31.3-17.3 36.3-.1.5-1.6 4.4-3.2 8.5-2.7 7-9.5 29.4-10.6 35-.3 1.4-1.7 8.1-3.1 14.9-1.4 6.8-2.5 13.5-2.5 14.8 0 1.3-.2 2.3-.4 2.3s-4.3-2.3-9.2-5.1c-4.9-2.9-10.9-6.3-13.4-7.7-70.7-39.1-108.8-66.5-125.2-89.7-11.4-16.1-16.2-31.6-16.2-52 0-16.6 2-25.9 8.4-39.1 7.8-16.1 22.4-30.2 40.2-38.6 10.7-5 25.5-9.2 36.5-10.3 3.7-.4 7-.9 7.2-1.1.6-.5 35.4.3 38.1 1zm-440 11.1c27.9 2.7 50.9 9.9 71.8 22.7 3.7 2.2 6.9 4.3 7.2 4.7.3.3 3 2.5 6 4.8 12.2 9.2 28.1 28.1 35.8 42.3 8.9 16.5 14.8 30.4 20.1 47.5 3 9.6 8.5 31.8 9.4 38 .3 1.6 1 5.7 1.5 9 .6 3.3 1.4 7.8 1.7 10 .3 2.3.7 5 .9 6 .2 1.1.7 4.9 1.1 8.5.4 3.6.9 7.6 1 9 .2 1.4.6 6.1 1 10.5.3 4.4.8 9.8 1 12 2.3 23.9 2.3 95.3 0 116.6-.2 1.9-.6 7.2-1 11.9-.6 8.7-4.2 38.3-5 41-.2.8-.7 3.5-1 6-1.1 7.3-7.2 33.7-10.4 44.5-22.4 76.1-64.9 120.6-127.6 133.5-13.9 2.9-20.8 3.5-39 3.5-25 0-37.5-2.3-45.3-8.2-4.7-3.5-6.2-8.1-7.9-24.8-.4-4.4-.8-122.8-.8-263 0-246.5.1-255.2 1.9-261 2.5-8 4.2-11.4 8-15.3 5.3-5.7 14.9-8.8 30.1-9.9 5-.3 9.1-.7 9.3-.8.5-.4 23.5.4 30.2 1zM625 660c17.6 11.7 29.5 18.8 56 33.2 3.6 2 8.8 4.8 11.5 6.3 2.8 1.5 7.9 4.4 11.5 6.3 3.6 2 10.8 6 16 9.1 5.2 3 11.2 6.4 13.2 7.5 24.2 13.7 42.2 25.9 50.9 34.7 10.7 10.6 17.3 24.2 20.5 41.9 1.2 6.6 1.1 24.8-.1 33.1-4.7 31.2-25.1 58.9-55.5 75.1-8.7 4.6-15.9 7.4-25.2 9.7-10.9 2.8-14.4 3.2-30.8 3.5-14.4.3-29.2-1.3-39.5-4.5-29.6-8.9-54-23.5-74.8-44.5-12.9-13.2-22.4-27-30.3-44.1-6-13-6.1-11.2 1.2-21.4C566.1 783 580 755.8 589 729c3.7-11.1 9.4-32.9 11-41.5.5-3.3 1.2-6.9 1.4-8.1.2-1.2.7-4.5 1.1-7.5.3-3 .8-6.1 1-6.9.3-1.4 1.7-15 1.8-17.7 0-.6 2.3.6 5.1 2.6s9.4 6.6 14.6 10.1zM1283 301c0 3.9.1 4 3.5 4h3.5v28h4.5c2.9 0 4.5-.4 4.6-1.3 0-.6.1-6.9.1-14V305h3.4c2.5 0 3.4-.4 3.5-1.8 0-.9.2-2.7.3-4 .3-2.2.1-2.2-11.6-2.2H1283v4zM1308 315v18h9l-.1-8.8c-.1-15.6.2-16.3 2.3-5.2 1.1 5.8 2 11.3 1.9 12.3 0 1.5.7 1.8 3.7 1.5l3.6-.3 2.2-12c2.3-12.6 2.7-11.9 2.5 3.7l-.1 8.8h9v-36h-6.4c-7 0-7-.1-8.1 7-.3 1.9-.9 5.1-1.2 7-.4 1.9-.7 3.8-.8 4.2 0 1.3-1.2 1.8-1.2.5 0-1.2-.9-6.6-1.9-12.2-.3-1.7-.7-3.7-.8-4.5-.2-1.1-2-1.6-6.9-1.8l-6.7-.3V315zM424.3 972c-4.7 1.1-11.9 5.6-14.4 9.1-3.1 4.5-4.8 10.9-4.4 17.5.4 7.3 1.5 10.1 5.6 14.8 3.8 4.4 7.3 6.3 19.8 10.5 5.2 1.8 11.1 4.4 13.2 5.7 6.8 4.2 9.4 12.5 6.9 21.6-2.4 8.5-9.9 12.9-20.9 12.4-10.4-.4-16.6-6.8-17.6-17.8-.3-2.8-.9-5.4-1.4-5.8-.9-.5-2.9-.5-7.5-.1-.8.1-.2 8.8 1 13.9 1.1 4.1 4.9 9.7 8.6 12.5 10.5 7.8 30.6 6.6 40.4-2.4 6.9-6.4 9.5-23 5-31.9-3-5.9-8.6-10.1-18.2-13.5-19.1-6.8-23.3-9.7-25.5-17.7-3.3-12.5 5.8-22.7 19.4-21.6 8.8.7 14.3 6.2 14.9 15.1l.2 3.7h9.3l-.4-3.8c-.9-8.6-3.5-14.2-8.3-18-5.2-4-17.3-6-25.7-4.2zM742.1 972.1c-7.9 1.6-11 6.7-11 18.6-.1 7.1-.1 7.2-2.8 7.1-7.1-.1-7.3 0-7.3 3.8 0 3.3.2 3.5 2.8 3.4 1.5-.1 3.7-.2 5-.1l2.2.1v65h4c3.5 0 4-.3 4.1-2.3 0-1.2.1-15.8.1-32.5V1005l4.2-.1c2.2-.1 5.1 0 6.4.1 1.9.1 2.2-.3 2.2-3.4 0-2.2-.5-3.6-1.2-3.7-.7-.1-3.6-.1-6.5-.1h-5.1v-5.7c.2-10.1 2.3-13.1 9.2-13.1 3.4 0 3.6-.2 3.6-3.4 0-3.1-.3-3.4-3.3-3.8-1.8-.2-4.8-.1-6.6.3zM896 971.7c-16.7 5.3-24.2 22.2-23.5 52.7.8 32.1 10.6 47 31 46.9 17.1 0 26.1-10.3 30.1-34.3.8-4.9.8-22.3-.1-30-.9-8.6-2.2-13.4-5.4-19.9-5.1-10.5-12-15.1-23.5-15.5-3.9-.2-7.8-.1-8.6.1zm16.1 9.5c6.2 3.5 10.6 11.8 12.5 23.8.8 5.4.8 28-.1 33-2 11.9-5.6 19.2-11.4 23.1-2.7 1.9-4.8 2.4-9.6 2.4-15.8 0-22.6-13.7-22-44.5.5-23 4.7-34.4 14.3-38.7 4.5-1.9 12-1.6 16.3.9zM11.9 972.8l-3.6.3v97l15.6-.2c22-.3 29.6-2.9 35.9-12.4 4.7-7.1 6.5-16.4 6.7-35 .4-30.9-5.9-43.9-23.2-48.4-4-1.1-24.1-1.9-31.4-1.3zm28.1 8.7c8.7 1.9 14.8 10.2 16.9 23 1 6.3.7 31.8-.4 36.9-1.2 5.8-4.8 12.7-8.1 15.6-4.4 3.8-9.3 5-21.1 5.2l-9.8.1-.2-39.9c-.1-22-.1-40.4.1-41 .4-1.2 17-1.1 22.6.1zM531.9 972.8l-3.6.3-.1 7-.1 6.9h8.5l-.1-6.9c0-3.8-.2-7.1-.5-7.3-.3-.2-2.1-.2-4.1 0zM707.5 972.9l-4 .6-.1 6.7-.1 6.8h8.7v-7.5c0-4.1-.1-7.4-.2-7.3-.2 0-2.1.4-4.3.7zM1166 972.8c-.5.2-1 3.5-1 7.3v6.9h4c4.1 0 4.2-.1 4.2-5.5 0-9 0-9.1-3.2-9-1.6 0-3.4.1-4 .3zM761.1 980v7h8.7v-14h-8.6l-.1 7zM197.5 977.9c-.3.2-.5 4.8-.5 10.1v9.8l-4.7-.1h-4.8l-.3 3.7c-.2 2.6.1 3.7 1 3.5.7-.1 3-.1 5.1 0l3.7.1v28.5c0 36 0 36.1 13.5 37 3.5.2 6.6.1 6.9-.3.2-.4.6-2 .7-3.7.4-2.9.3-3-4.4-3.1-8.3-.2-8.1.5-8.2-30.9l-.1-27.5 5.1-.1c2.7-.1 5.6-.1 6.3 0 .8.1 1.2-1.2 1.2-3.6v-3.9l-6.2.1h-6.2l-.1-9.2c0-5-.3-9.4-.7-9.8-.8-.8-6.6-1.3-7.3-.6zM674.8 978.1c-.9.6-1.3 3.7-1.3 10.1v9.3l-3.5.2c-1.9.1-4.2.2-5 .2-1.1.1-1.6 1.1-1.5 3.3.1 3.2.2 3.3 4.8 3.3 2.6 0 4.8.4 4.8 1 .1.5.2 13.8.3 29.5.2 30.7.4 32.2 5.4 34.2 4 1.6 13.9 1.9 15 .5.5-.7.9-2.3.7-3.7-.1-2.3-.6-2.5-4.9-2.5-5.5-.1-7.6-2-7.7-6.9-.1-4.4-.1-45.5 0-49.1l.1-3 6 .3c3.3.2 6 0 6.1-.5.7-6.1.7-6.3-2.5-6.4-1.7-.1-4.6-.1-6.3 0-2.1.1-3.3-.3-3.4-1.1 0-.7-.1-5.2-.1-9.9v-8.7l-2.9-.4c-1.6-.3-3.4-.1-4.1.3zM94 997.3c-5 1.6-11.4 8.8-13.4 15-3 9.5-3.7 20.7-2.3 33.4 1.4 11.6 7.5 21.1 15.6 24.3 5.1 2 13.9 1.7 18.7-.8 9.5-4.8 13.5-13.9 14.2-32.1.8-21.4-3.5-33.3-14.1-38.8-3.8-1.9-13.8-2.5-18.7-1zm13.8 7.1c5 2.6 8.1 8 9.8 17 .8 4.1.7 20.2-.1 24.6-.4 1.9-.8 3.9-.9 4.5-.5 3-5 10.3-7.2 11.9-3.4 2.4-10.1 2.5-13.7.1-5.7-3.7-8.6-12.3-9.1-26.4-.3-11.1.8-18.3 3.8-24.5 3.7-7.6 10.9-10.6 17.4-7.2zM151.3 997.6c-7 2.5-12.3 10.2-14.9 21.5-.3 1.3-.7 7.1-.9 12.9-.7 22.1 5.2 35.5 17.2 38.5 11.1 2.8 21-1.3 26-10.9 2.2-4.1 4.4-13.6 3.2-13.7-.5-.1-1.8-.1-2.9-.1-4.3 0-4.8.3-5.5 3.9-.9 4.8-4 10.3-7.1 12.6-3.5 2.6-10.7 2.6-14.1.1-3.4-2.5-6-7.6-7.2-13.7-1.2-6.5-.7-27.2.9-32.7 2.5-9.2 8.8-13.9 16.8-12.5 4.7.8 7.6 3.2 9.6 7.9 1.6 3.9 1.6 3.8 1.6 6.4 0 1.4.7 1.7 4.4 1.4l4.4-.4-1.2-5.1c-2.1-9-4.8-12.5-11.6-15.6-5-2.2-13.3-2.4-18.7-.5zM239.6 997.5c-11.5 4.1-16.9 17.1-16.2 39 .4 13 1.9 19.4 6 25.5 6.8 10.3 22.5 12.5 32.9 4.6 4-3 8-11.4 9.6-19.6 1.3-7.2.6-25.1-1.2-31.7-2.7-9.5-7.4-15.2-14.6-17.8-5.3-1.8-11.3-1.9-16.5 0zm15.7 8.1c6 4.5 8.7 14.3 8.2 30.7-.2 8.6-.8 12.5-2.4 16.9-2.3 6-6.8 10.7-10.4 11-1.2 0-2.9.2-3.7.3-4.3.4-10.4-5.2-12.7-11.9-2.5-7.3-2.5-29.9 0-37.4 1-2.9 2.5-6.2 3.5-7.3 4-5 12.4-6 17.5-2.3zM305.5 996.9c-4.6 1.6-7.2 3.4-9.5 6.8l-2.5 3.7-.3-4.7c-.2-3.2-.8-4.7-1.8-4.8-.7-.1-2.6-.1-4.1-.2l-2.8-.1v71.9l4.2.3 4.2.3.3-26.8c.3-27.8.4-28.2 4.8-33.7 2.3-2.8 6.8-4.7 11.6-4.9l4.4-.1v-4.3c0-4.2-.1-4.3-3.2-4.2-1.8.1-4.2.4-5.3.8zM333.6 996.7c-8.1 2.2-13.7 10.1-13.7 19.1-.1 11 3.3 14.3 23.2 22.1 7 2.8 10.5 6.4 11.3 11.6.8 4.7-1.4 9.8-5.4 12.7-3.1 2.2-10.5 2.7-14.8.9-4-1.7-7.2-7.4-7.2-12.9 0-3.8-.1-3.8-3.7-3.8-2.1 0-4.1.4-4.4.9-1.2 1.7.2 10.2 2.4 14.7 3.2 6.6 8.6 9.3 18.6 9.3 12.3.1 19.4-4.4 22-13.9 2.8-10 0-18.6-7.5-23.4-2.7-1.6-5.3-3-5.9-3-1.6 0-13.7-5.3-16.1-7-3.1-2.2-4.2-5-4-9.5.3-5.4 2.1-8.4 6.1-10.1 10-4.1 18.5 1.4 18.5 12.2 0 1.7.6 2 4 2h4v-4.7c0-5.8-3.5-12.7-7.8-15.2-3.2-1.9-15.6-3.2-19.6-2zM485.1 997.4c-7.4 2.6-13.8 12.1-15.5 23-1.1 6.9-.9 23 .4 29.1 3.2 15.3 10.1 21.9 23.1 21.8 6.8-.1 11.9-2.3 16.1-7 2.4-2.7 5.5-10.1 6.2-14.9l.6-4-3.6.3c-4.5.3-5.1.8-5.9 5.3-1.3 7.7-6.6 13-13 13.2-11.3.4-16.1-9.5-15.7-32.6.3-19 5.6-28.6 15.9-28.6 6.7 0 13.3 6.6 13.3 13.2 0 2.6.3 2.8 4.5 2.8 5.1 0 5.2-.2 3-7.8-1.8-5.8-5.3-10.6-9.8-12.9-3.9-2-15.1-2.5-19.6-.9zM565.1 998.1c-9.9 4.4-14.6 14.4-15.5 32.9-.4 7.4 1.1 19.4 3.2 25.5 2.4 6.9 8.6 13 14.3 14.1 14.3 2.7 24.6-3.3 28.3-16.5 2.3-8.2 2.2-8.6-2.1-8.6-3.7.1-3.8.2-6 6.5-2.3 6.8-6.7 11.9-10.3 12.1-1.1.1-2.6.2-3.2.3-2.3.4-7.9-2.3-9.8-4.6-2.9-3.5-5-10.6-5.2-18.3l-.3-7 15-.2c8.3 0 17.1-.2 19.7-.2l4.8-.1-.5-9c-.9-15.5-5.9-24.9-14.8-27.5-6.8-2-12.3-1.9-17.6.6zm17.2 7.6c2.9 2.6 5.5 9 6.2 15.5.7 5.6.6 5.8-1.7 5.9-9.4.3-26.8 0-27.6-.5-1.8-1.1.7-14 3.6-18.4.9-1.4 3-3.1 4.7-3.9 3.9-1.7 12.1-1 14.8 1.4zM629 997.4c-3.9 1.7-7.1 4.2-9.1 7.3-2 3-2.2 2.7-1.9-2.6.2-3.9-.9-4.9-4.9-4.3l-2.8.4-.1 35.9v35.9h8.7v-26.8c0-27.9.3-30.6 4.4-35 3.4-3.7 6.8-5 11.9-4.8 5.5.2 9.3 3.1 10.4 8 .4 1.7.8 15.5.8 30.6l.1 27.5 4.3.3 4.2.3v-29.3c0-17.7-.4-30.8-1.1-33.2-2.5-9.2-15.2-14.3-24.9-10.2zM798.5 997.4c-5.7 2.1-11.6 9-13.9 16.2-3.9 11.9-2.8 37.3 1.9 46.3 4.8 9.4 15.8 13.7 26.5 10.5 5.4-1.7 8.9-4.6 12.3-10.5 3-5.2 4.6-13.9 2.5-14-.7 0-2.4-.2-3.6-.3-2.5-.3-3.1.5-5.1 7.9-2.6 9.2-10.3 13-19.2 9.4-6.2-2.5-9-12.6-8.5-30.9.4-15.4 1.4-19.7 6-24.7 4.2-4.6 11.2-5.6 16.4-2.3 3.1 1.9 8 10.5 6.7 11.8-1.3 1.3 1.8 2.8 5 2.4 3-.4 3.5-.8 3.4-3.1-.2-6.1-4.8-14.1-10-17-5-2.8-15-3.6-20.4-1.7zM967.5 998c-5.2 2.5-6.8 3.9-8.8 7.5l-1.6 3-.1-5.3c0-2.8-.3-5.2-.7-5.3-4.3-.4-6.5-.3-7 .4-.2.4-.5 16.6-.5 36l-.1 35.2 4.2.3 4.1.3v-23.8c0-13.1.5-25.7 1-28.1 1.9-8.3 8.4-13.6 16.2-13.5 3.9.1 4.7-.8 4.2-4.7-.1-1.4-.3-2.8-.3-3.3-.2-1.4-6.6-.6-10.6 1.3zM996.8 998.3c-9 4.5-12.8 14.4-13.2 34.2-.5 24.5 7.4 37.5 22.8 37.5 4.3 0 11.3-3.7 13.3-7.1 1-1.6 2.1-2.9 2.5-2.9.5 0 .6 3.8.4 8.5-.7 13.4-5.2 19-15.2 18.9-6.3 0-10.1-2.3-12.3-7.2-1.3-2.8-1.9-3.2-5.4-3.2h-4l.6 3.5c.7 4.5 3.8 8.8 8.4 11.6 2.9 1.8 5.1 2.3 11.7 2.3 13.1.1 19.7-4.4 23.1-15.8 1.1-3.6 1.4-13.3 1.5-42.5 0-40.8.2-39.4-5.2-38.4-2.3.4-2.5.9-2.3 4.8l.2 4.4-3.9-4.4c-5.9-6.7-14.7-8.3-23-4.2zm15.4 5.6c6.7 2.6 9.7 10.3 10.3 25.8.9 23.1-5.3 35.1-17 32.9-8.9-1.7-12.8-9.9-12.9-27.6 0-13.2.7-18.5 3.4-24.2 3-6.5 9.8-9.4 16.2-6.9zM1057.5 997.6c-6.9 2.4-11.2 8.5-12.2 17.3-.5 4.5-.4 4.8 1.9 4.5 1.2-.1 3.2-.3 4.4-.3 1.6-.1 2.1-.8 2.2-3.1.1-4.7 3-9.7 6.7-11.4 6.5-3.1 14.5-1.4 17.2 3.8 2.2 4.2 2.2 13-.1 15.5-.9 1-6.6 3.3-13.3 5.1-13 3.8-16.6 6.1-19.5 12.7-2.3 5.2-2.5 14.4-.4 19.3 3.1 7.5 10.6 11.4 19.8 10.3 7.2-.8 12.2-4.3 15-10.3.4-.9.7-.2.7 1.7.1 3.3 2.9 7.2 5.4 7.4.6.1 2.7.3 4.5.5 2.7.3 3.4 0 4.1-1.9 1.1-3 .4-4.4-2.5-5.1-1.4-.4-2.6-1.6-3-3.1-.3-1.4-.7-13.8-.8-27.7-.2-27-.3-27.9-5.5-32.4-4.8-4.2-16.6-5.6-24.6-2.8zm21.9 43.3c-.1 7.9-.6 11-2.3 14.5-5.3 10.8-20.6 12.1-24.1 2.1-2.5-7.5-.7-15.5 4.3-18.7 1.2-.9 6.4-2.8 11.5-4.3 5.1-1.6 9.2-3.2 9.2-3.7s.4-.7.8-.4c.5.3.8 5 .6 10.5zM1123.4 997.3c-3.7 1.4-8.6 5.4-10.2 8.2-1.2 2.2-1.4 1.6-1.4-4 0-3.6-.9-4.3-4.7-3.7l-2.8.4v71.8h8.6l-.1-26.4c0-29.3.4-31.8 5.7-36.5 7.8-6.8 18.9-4.5 21.3 4.5.5 1.6.8 15.4.7 30.6v27.8h8.6l-.1-30.3c-.1-28.9-.2-30.4-2.3-34.7-1.3-2.6-3.6-5.2-5.5-6.3-4-2.3-13.6-3.1-17.8-1.4zM1203.5 996.7c-3 .8-8.2 4.6-10.6 7.7-9.8 12.4-9.9 46.1-.2 59.4 5.5 7.5 18.6 9.9 27.4 5.1 5.4-3 10.3-10.1 11.8-17.1 1.4-6.3.7-6.9-7-5.9-.4.1-.9 1.9-1.3 4.2-1.8 11.4-10.3 17-19.5 12.8-4.7-2.1-7.4-6.8-8.6-15.4-1.4-9.5-.8-27.9 1.1-33 3-8 8.8-12.1 15.7-11.2 6.4.8 10.1 4.4 11.2 10.9.7 4.1 2.6 5.6 6.5 5 3.4-.5 3.5-1.1 1.6-7.6-1.7-5.7-5.7-11.1-9.7-13.2-3.2-1.6-14.9-2.7-18.4-1.7zM1255.5 997.6c-7.1 2.6-11.1 8.2-12.2 16.9l-.5 4.5h4.4c4.3 0 4.4 0 4.6-3.7.2-2 1-4.9 1.9-6.5 4.4-7.4 18.2-7.7 22-.5 2.1 4.1 2.1 13.2-.1 15.5-.8 1-5.3 2.9-9.8 4.1-13.8 3.8-16.7 5.2-20.3 9.4-7.8 9.1-5.8 26.4 3.7 31.7 8.6 4.8 21.9 2.2 26.3-5.3l1.9-3.2.7 3.4c1 4.7 2.9 6.2 8.5 6.4l4.9.2.3-3.7c.3-3 0-3.7-1.1-3.2-1.9.7-4.7-2.2-4.8-4.9 0-1.2-.1-13.2-.2-26.7-.3-25.3-.5-27.1-4.7-30.8-5.4-4.8-17.7-6.5-25.5-3.6zm22 41.2c-.4 13.9-2.5 20-8.2 23.4-9.9 5.7-19 .4-19.4-11.5-.4-8.6 4-12.9 16.3-16.1 4.5-1.2 10-3.3 11.4-4.5.1-.1 0 3.8-.1 8.7zM530.9 997.8l-2.6.3v36l.1 36 4-.3 4.1-.3v-35.7c0-38.9.4-36.8-5.6-36zM704.1 998c-.4.3-.7 16.5-.6 36v35.5l4.3.3 4.2.3v-72.6h-3.6c-2 0-3.9.2-4.3.5zM762.8 997.8c-1.6.3-1.7 3.1-1.7 36.3l.1 35.9h8.5l.1-35.9v-35.9l-2.7-.4c-1.4-.2-3.4-.2-4.3 0zM1166.3 997.7c-1 .4-1.3 8.6-1.3 36.4v35.9h4c3.8 0 4-.1 4.1-3.3.2-10.3 0-67.9-.3-68.1-.8-.7-5.4-1.3-6.5-.9z"/></svg>